<?xml version="1.0" encoding="utf-8"?>
<!-- Generator: Adobe Illustrator 27.4.0, SVG Export Plug-In . SVG Version: 6.00 Build 0)  -->
<svg version="1.1" id="Layer_1" xmlns="http://www.w3.org/2000/svg" xmlns:xlink="http://www.w3.org/1999/xlink" x="0px" y="0px"
	 viewBox="0 0 1150 296" style="enable-background:new 0 0 1150 296;" xml:space="preserve">
<style type="text/css">
	.st0{fill:#FFFFFF;}
	.st1{enable-background:new    ;}
	.st2{fill:#E42527;}
	.st3{fill:#226DB4;}
	.st4{fill:#F9B21D;}
</style>
<g>
	<g>
		<path d="M382.07,140.79h26.37l50.15,82.09v-82.09h20.09v114.89h-23.07l-53.44-87.42v87.42h-20.09V140.79z"/>
		<path d="M540.12,169.83c25.5,0,45.12,17.89,45.12,43.63c0,26.45-20.64,43.79-45.99,43.79c-25.58,0-46.14-17.74-46.14-43.4
			C493.11,187.48,514.85,169.83,540.12,169.83z M563.66,213.62c0-15.46-7.85-28.33-24.33-28.33c-16.95,0-23.7,13.5-23.7,28.88
			c0,14.91,7.93,27.62,24.17,27.62C556.6,241.79,563.66,228.29,563.66,213.62z"/>
		<path d="M642.45,255.05c-4.32,1.26-8.79,2.04-13.81,2.04c-16.01,0-25.5-8.32-25.5-25.03v-45.67h-11.3v-14.75h11.3v-17.34
			l20.09-8.71v26.05h18.52v14.75h-18.52v43.87c0,6.59,2.83,10.67,10.2,10.67c2.83,0,5.96-0.63,9.03-1.65V255.05z"/>
		<path d="M732.69,237.39c-6.98,14.83-22.05,19.85-37.51,19.85c-26.53,0-43.24-17.74-43.24-43.87c0-24.64,17.03-43.55,42.3-43.55
			c27.15,0,40.42,15.85,40.42,48.26h-62.23c0,14.2,8.24,24.56,23.54,24.56c9.1,0,16.64-3.69,21.03-12.24L732.69,237.39z
			 M714.64,204.9c-0.63-12.71-8.32-20.48-20.17-20.48c-12.63,0-20.01,8.87-21.74,20.48H714.64z"/>
		<path d="M750.81,133.57h20.09v51.64c5.81-9.65,17.5-15.38,28.64-15.38c25.58,0,38.22,20.56,38.22,43.55
			c0,23.7-13.34,43.87-37.59,43.87c-11.85,0-23.78-4.79-29.27-15.07v13.5h-20.09V133.57z M817.05,212.91
			c0-14.28-6.98-27.39-23.54-27.39c-16.64,0-23.31,13.34-23.31,28.25c0,15.77,7.53,27.78,24.25,27.78
			C812.1,241.55,817.05,228.37,817.05,212.91z"/>
		<path d="M893.01,169.83c25.5,0,45.12,17.89,45.12,43.63c0,26.45-20.64,43.79-45.99,43.79c-25.58,0-46.14-17.74-46.14-43.4
			C846,187.48,867.74,169.83,893.01,169.83z M916.55,213.62c0-15.46-7.85-28.33-24.33-28.33c-16.95,0-23.7,13.5-23.7,28.88
			c0,14.91,7.93,27.62,24.17,27.62C909.49,241.79,916.55,228.29,916.55,213.62z"/>
		<path d="M991.57,169.83c25.5,0,45.12,17.89,45.12,43.63c0,26.45-20.64,43.79-45.99,43.79c-25.58,0-46.14-17.74-46.14-43.4
			C944.56,187.48,966.3,169.83,991.57,169.83z M1015.11,213.62c0-15.46-7.85-28.33-24.33-28.33c-16.95,0-23.7,13.5-23.7,28.88
			c0,14.91,7.93,27.62,24.17,27.62C1008.05,241.79,1015.11,228.29,1015.11,213.62z"/>
		<path d="M1051.36,133.57h20.09v74.71l30.45-36.65h22.05l-33.35,38.53l35.86,45.52h-23.15l-31.86-40.96v40.96h-20.09V133.57z"/>
	</g>
	<g>
		<path d="M382.23,104.43l36.97-53.42h-33.23V40.47h50.63v5.25l-36.07,53.42h35.03v10.54h-53.32V104.43z"/>
		<path d="M468.27,57.96c15.36,0,27.18,10.78,27.18,26.28c0,15.93-12.43,26.38-27.7,26.38c-15.41,0-27.8-10.68-27.8-26.14
			C439.95,68.59,453.04,57.96,468.27,57.96z M482.45,84.33c0-9.31-4.73-17.06-14.65-17.06c-10.21,0-14.28,8.13-14.28,17.4
			c0,8.98,4.77,16.64,14.56,16.64C478.19,101.3,482.45,93.17,482.45,84.33z"/>
		<path d="M504.29,36.12h12.1v30.96c3.26-6.29,9.93-9.12,16.92-9.12c12.1,0,18.15,8.51,18.15,20.04v31.67h-12.2V79.18
			c0-7.28-3.78-11.25-10.83-11.25c-7.75,0-12.05,4.77-12.05,12.01v29.73h-12.1V36.12z"/>
		<path d="M587.63,57.96c15.36,0,27.18,10.78,27.18,26.28c0,15.93-12.43,26.38-27.7,26.38c-15.41,0-27.8-10.68-27.8-26.14
			C559.31,68.59,572.41,57.96,587.63,57.96z M601.81,84.33c0-9.31-4.73-17.06-14.65-17.06c-10.21,0-14.28,8.13-14.28,17.4
			c0,8.98,4.77,16.64,14.56,16.64C597.56,101.3,601.81,93.17,601.81,84.33z"/>
	</g>
</g>
<g>
	<g class="st1">
		<path class="st2" d="M60.05,253.36c-7.11,0-13.26-5.38-14.05-12.66v-0.03L27.7,66.75c-0.4-3.77,0.68-7.48,3.09-10.42
			c2.38-2.92,5.75-4.76,9.49-5.16h0.03l80.39-8.44c4.67-0.48,8.84,2.89,9.35,7.56c0.51,4.67-2.89,8.84-7.56,9.35L44.89,67.8
			l17.7,168.28l12.94-1.36c4.67-0.48,8.84,2.89,9.35,7.56c0.48,4.67-2.89,8.84-7.56,9.35l-15.72,1.64
			C61.07,253.33,60.56,253.36,60.05,253.36z"/>
	</g>
	<g class="st1">
		<path class="st3" d="M279.18,242c-0.68,0-1.36-0.06-2.04-0.14l-15.66-2.21c-4.65-0.65-7.87-4.96-7.22-9.6
			c0.65-4.65,4.96-7.87,9.6-7.22l12.86,1.81l23.54-167.6l-167.6-23.54l-7.42,52.83c-0.65,4.65-4.96,7.87-9.6,7.22
			c-4.65-0.65-7.87-4.96-7.22-9.6l7.82-55.63c0.51-3.74,2.46-7.05,5.52-9.35c3.03-2.27,6.74-3.23,10.48-2.69L305.44,40.6
			c3.74,0.51,7.05,2.46,9.35,5.52c2.27,3.03,3.23,6.74,2.69,10.48l-24.33,173.21c-0.51,3.74-2.46,7.05-5.52,9.35
			C285.15,241.04,282.21,242,279.18,242z M276.32,227.47L276.32,227.47L276.32,227.47z M303.08,57.43L303.08,57.43L303.08,57.43z
			 M300.65,54.17C300.65,54.2,300.65,54.2,300.65,54.17C300.65,54.2,300.65,54.2,300.65,54.17z M133.04,30.66L133.04,30.66
			L133.04,30.66z"/>
	</g>
	<g class="st1">
		<path class="st4" d="M256.97,279.87H82.09c-7.82,0-14.16-6.35-14.16-14.16V90.8c0-7.82,6.34-14.16,14.16-14.16H257
			c7.82,0,14.16,6.34,14.16,14.16v174.91c0,0.03,0,0.06,0,0.08C271.08,273.56,264.73,279.87,256.97,279.87z M262.66,265.71
			L262.66,265.71L262.66,265.71z M84.92,262.88h169.25V93.63H84.92V262.88z"/>
	</g>
	<g class="st1">
		<path class="st3" d="M220.57,136.18H118.6c-4.7,0-8.5-3.8-8.5-8.5c0-4.7,3.8-8.5,8.5-8.5h101.97c4.7,0,8.5,3.8,8.5,8.5
			C229.07,132.38,225.27,136.18,220.57,136.18z"/>
	</g>
	<g class="st1">
		<path class="st3" d="M220.57,169.88H118.6c-4.7,0-8.5-3.8-8.5-8.5s3.8-8.5,8.5-8.5h101.97c4.7,0,8.5,3.8,8.5,8.5
			S225.27,169.88,220.57,169.88z"/>
	</g>
	<g class="st1">
		<path class="st3" d="M220.57,203.59H118.6c-4.7,0-8.5-3.8-8.5-8.5s3.8-8.5,8.5-8.5h101.97c4.7,0,8.5,3.8,8.5,8.5
			S225.27,203.59,220.57,203.59z"/>
	</g>
	<g class="st1">
		<path class="st3" d="M169.44,237.3h-50.73c-4.7,0-8.5-3.8-8.5-8.5s3.8-8.5,8.5-8.5h50.73c4.7,0,8.5,3.8,8.5,8.5
			S174.15,237.3,169.44,237.3z"/>
	</g>
</g>
</svg>
